<svg xmlns="http://www.w3.org/2000/svg" width="521.124" height="158.94" viewBox="0 0 260.562 79.47">
  <defs>
    <style>
      .cls-1 {
        fill-rule: evenodd;
      }
    </style>
  </defs>
  <path id="b-banner_logo_npp.svg" class="cls-1" d="M626.94,8267.56h4.743V8271H618.445v-3.44h4.743v-30.33h-5.112v6.51h-3.232v-9.95h20.439v9.95h-3.231v-6.51H626.94v30.33Zm-23.42-22.12v-7.82c0-1.43-.3-1.72-1.724-1.72h-9.848c-1.426,0-1.783.29-1.783,1.72v29.55c0,1.42.357,1.72,1.783,1.72H601.8c1.426,0,1.724-.3,1.724-1.72v-7.76H611.1v6.3c0,3.45-1.724,5.29-5.588,5.29H588.173c-3.8,0-5.528-1.84-5.528-5.29v-26.69c0-3.39,1.724-5.23,5.528-5.23h17.338c3.864,0,5.588,1.84,5.588,5.23v6.42H603.52Zm-85.395,5.44c2.4,0,44.5-.15,45.121-0.31a4.3,4.3,0,0,0,2.4-1.62,6.6,6.6,0,0,0,1.2-3.23,0.382,0.382,0,0,1,.417-0.47l1.407,0.16c0.261,0.05.469,0.1,0.417,0.42a52.6,52.6,0,0,0-.156,5.42c0,2.34.208,4.84,0.312,5.94,0.052,0.31-.156.36-0.416,0.41l-1.251.27c-0.208.05-.313-0.06-0.417-0.42a16.03,16.03,0,0,0-1.043-2.66,4.18,4.18,0,0,0-2.866-1.82c-1.407-.21-42.828-0.32-45.121-0.32v3.13c0,2.82.261,7.87,0.261,8.81,0,2.71.573,3.65,1.25,3.96a11.781,11.781,0,0,0,4.378.47c0.886,0,42.88-.05,43.975-0.16a7.884,7.884,0,0,0,3.961-1.72,58.842,58.842,0,0,0,5.316-5.57,0.4,0.4,0,0,1,.521-0.16l0.886,0.52a0.329,0.329,0,0,1,.208.42l-2.345,7.87a1.1,1.1,0,0,1-1.147.78c-0.26,0-1.407-.05-4.743-0.1-3.387,0-48.717-.06-57.733-0.06-1.928,0-3.388.06-4.43,0.06-1.1.05-1.772,0.1-2.241,0.1-0.365,0-.469-0.16-0.469-0.57v-1.1a0.434,0.434,0,0,1,.521-0.47h1.564c2.4,0,2.605-.36,2.605-2.19v-17.46c0-4.32-.1-10.73-0.156-11.25-0.208-1.67-.73-2.04-2.137-2.04h-2.033c-0.208,0-.26-0.15-0.26-0.52v-1.25a0.321,0.321,0,0,1,.365-0.36c1.146,0,2.971.15,7.713,0.15l58.1-.05c0.834,0,1.824-.1,2.085-0.1a0.368,0.368,0,0,1,.416.26c0.209,0.73,1.929,7.87,2.137,8.39a0.331,0.331,0,0,1-.156.52l-0.834.42a0.47,0.47,0,0,1-.625-0.21,56.753,56.753,0,0,0-6.15-5.84,8.683,8.683,0,0,0-3.961-1.41l-46.685-.2Zm-28.486,7.87v6.19c0,1.42.357,1.72,1.784,1.72h3.412c1.426,0,1.783-.3,1.783-1.72v-31.15h5.41v31.98c0,3.39-1.724,5.23-5.529,5.23h-6.741c-3.805,0-5.528-1.84-5.528-5.23v-7.02h5.409Zm-14.682-17.52c3.864,0,5.528,1.84,5.528,5.23v19.31c0,3.39-1.664,5.23-5.528,5.23h-12.3c-3.864,0-5.588-1.84-5.588-5.23v-19.31c0-3.39,1.724-5.23,5.588-5.23h12.3Zm-1.932,3.95c0-1.42-.357-1.72-1.784-1.72h-4.926c-1.426,0-1.724.3-1.724,1.72v21.87c0,1.42.3,1.72,1.724,1.72h4.926c1.427,0,1.784-.3,1.784-1.72v-21.87Zm-31.052,14.22H418.257V8271h-5.35v-29.77H445.9c3.863,0,5.527,1.84,5.527,5.23v7.65c0,2.97-1.188,4.69-3.982,5.17l5.885,11.72h-5.766Zm-23.716-4.28h26.034c1.427,0,1.784-.3,1.784-1.73v-6.1c0-1.42-.357-1.72-1.784-1.72H418.257v9.55Zm-33.346,11.75H390.6V8271H374.717v-4.13h5.691v-36.4h-5.691v-4.12h18.934c3.69,0,7.317.62,10.382,2.87a13.215,13.215,0,0,1,5.129,10.51,13.669,13.669,0,0,1-4.316,10.07c-3.189,3.06-6.567,3.56-10.757,3.56h-9.178v13.51Zm8.74-17.64c2.814,0,5.316-.18,7.568-2.06a9.329,9.329,0,0,0-.126-14.57c-2.376-1.81-4.628-2.13-7.5-2.13h-8.678v18.76h8.74Zm216.615-39.36h0.886a2.488,2.488,0,0,0,1.459-.67c0.939-.73,9.382-11.42,10.06-12.3,0.938-1.26,0-2.04-1.043-2.04h-0.886c-0.208,0-.26-0.1-0.26-0.36v-1.31a0.291,0.291,0,0,1,.312-0.36c0.626,0,2.763.16,6.88,0.16,2.554,0,4.378-.16,5-0.16a0.307,0.307,0,0,1,.365.36v1.41a0.351,0.351,0,0,1-.417.37h-0.834a6.518,6.518,0,0,0-3.022.88c-2.867,1.72-9.642,9.54-11.415,11.94,3.336,4.22,11.831,16.15,14.124,18.81a3.655,3.655,0,0,0,2.815,1.31h0.625a0.325,0.325,0,0,1,.365.36v1.41c0,0.26-.1.36-0.417,0.36-0.521,0-2.241-.15-7.453-0.15-4.326,0-6.358.15-7.088,0.15-0.209,0-.313-0.1-0.313-0.41v-1.36a0.274,0.274,0,0,1,.313-0.31h0.782a0.891,0.891,0,0,0,.73-1.36c-0.469-1.04-8.548-13.03-9.434-14.02a1.985,1.985,0,0,0-1.407-.73h-0.73v3.91c0,2.61.1,10.27,0.157,11a1.169,1.169,0,0,0,1.2,1.15h1.616a0.336,0.336,0,0,1,.417.31v1.46a0.289,0.289,0,0,1-.313.36c-0.625,0-2.189-.15-7.035-0.15-4.8,0-6.464.15-6.932,0.15a0.307,0.307,0,0,1-.365-0.36v-1.46a0.292,0.292,0,0,1,.365-0.31h1.616a1.21,1.21,0,0,0,1.407-.94c0.052-.47.156-9.91,0.156-16.32v-3.02c0-.94-0.156-10.84-0.156-11.41s-0.261-1.25-1.564-1.25h-1.3c-0.313,0-.417-0.11-0.417-0.37v-1.46c0-.21.1-0.31,0.417-0.31,0.626,0,2.189.16,6.88,0.16,4.534,0,6.254-.16,6.931-0.16a0.345,0.345,0,0,1,.417.42v1.35a0.313,0.313,0,0,1-.365.37h-1.25c-1.043,0-1.72.36-1.72,1.51,0,0.78-.157,8.91-0.157,11.46v1.93Zm-64.661,3.11v2.22q0,4.5.108,7.99t0.325,6.85a17.725,17.725,0,0,0-2-.11h-4.875a17.671,17.671,0,0,0-2,.11q0.216-3.36.324-6.85t0.109-7.99v-7.37c0-2.99-.037-5.66-0.109-7.99s-0.18-4.66-.324-7.01c0.613,0.07,1.281.14,2,.19s1.534,0.08,2.437.08c0.975,0,2.086-.05,3.331-0.13s32.462-.14,34.3-0.14c1.371,0,2.545.04,3.52,0.11a20.644,20.644,0,0,1,2.519.32,9.552,9.552,0,0,1,1.842.57,10.144,10.144,0,0,1,1.489.84,8.385,8.385,0,0,1,3.521,7.15,9.478,9.478,0,0,1-2.166,6.45,11.868,11.868,0,0,1-6.23,3.52q2.6,4.6,5.579,9.18t5.959,9.07c-0.831-.07-1.644-0.11-2.438-0.11h-4.9c-0.812,0-1.634.04-2.465,0.11l-9.695-17.06H545.605Zm38.229-9.97a11.922,11.922,0,0,0-.487-3.79,4.3,4.3,0,0,0-1.49-2.14,5.665,5.665,0,0,0-2.6-.95c-1.065-.14-32.01-0.21-33.49-0.21q-0.162,7.365-.162,14.73c0.216,0.04.423,0.06,0.622,0.08s30.06,0.03,30.241.03a7.354,7.354,0,0,0,5.471-1.92Q583.834,8206.9,583.834,8203.01Zm-78.393,12.71c-0.414,1.09-2.947,8.17-2.947,9.82,0,1.14.466,2.38,2.016,2.38h1.81c0.517,0,.569.21,0.569,0.42v1.13c0,0.42-.052.57-0.466,0.57-0.672,0-2.791-.15-7.03-0.15-3.775,0-4.912.15-5.636,0.15-0.31,0-.361-0.31-0.361-0.67v-0.98c0-.31.051-0.47,0.361-0.47H495.1a4.341,4.341,0,0,0,3.516-2.27c0.724-1.09,4.394-10.08,6.1-14.63,0.414-1.04,4.6-12.15,5.067-13.55a2.1,2.1,0,0,0,.052-1.76,1.385,1.385,0,0,1-.363-0.67,0.535,0.535,0,0,1,.518-0.46c1.654-.36,5.014-1.71,5.79-2.59a1.053,1.053,0,0,1,.672-0.46c0.31,0,.413.31,0.569,0.88,0.982,3.25,5.014,14.83,6,18.14,1.189,4.03,4.549,13.65,5.273,15.05a3.819,3.819,0,0,0,3,2.32h1.757c0.31,0,.362.21,0.362,0.47v0.98c0,0.31-.052.67-0.465,0.67-0.983,0-2.068-.15-8.686-0.15-4.29,0-6.1.15-7.134,0.15a0.528,0.528,0,0,1-.569-0.67v-0.98c0-.26.052-0.47,0.31-0.47h1.448c1.4,0,1.861-.51,1.551-1.86-0.466-1.86-2.482-8.48-3.1-10.34H505.441Zm10.857-2.07-3.878-13.7c-0.207-.77-0.31-1.13-0.568-1.13a0.7,0.7,0,0,0-.62.67c-0.259.67-4.705,12.87-5.119,14.16H516.3Zm-27.9-20.82c3.864,0,5.528,1.84,5.528,5.23v16.5c0,3.45-1.664,5.23-5.528,5.23h-9.165v17.7h-5.35v-44.66H488.4Zm0.179,6.06c0-1.42-.357-1.72-1.784-1.72h-7.56v18.34h7.56c1.427,0,1.784-.35,1.784-1.78v-14.84Zm-20.044,31.46h-5.35v7.14h5.35v-7.14Zm-10.7,7.14h-6.619l-65.4-36.69v15.86h4.066v5.94H374.717v-5.94h4.013v-17.89h-4.013v-5.94h10.424l65.608,37.1v-31.16h-4.065v-5.94H461.85v5.94h-4.013v38.72Z" transform="translate(-374.719 -8191.53)"/>
</svg>
