<svg xmlns="http://www.w3.org/2000/svg" width="18.69" height="18.07" viewBox="0 0 18.69 18.07">
  <defs>
    <style>
      .cls-1 {
        fill: #616153;
        fill-rule: evenodd;
      }
    </style>
  </defs>
  <path id="font-kitsune.svg" class="cls-1" d="M1302.94,4828.44v3.2c0,1.42.72,1.74,2.86,1.74a10.587,10.587,0,0,0,3.1-.3,0.947,0.947,0,0,0,.9-0.94,0.734,0.734,0,0,0-.44-0.68,0.34,0.34,0,0,1-.26-0.32c0-.36-0.04-0.78.02-1.8a0.125,0.125,0,0,0-.24-0.02,3.9,3.9,0,0,1-1.02,2.08,3.1,3.1,0,0,1-2.04.36c-0.86,0-1.04-.08-1.04-0.64v-2.96l4.68-.72a0.211,0.211,0,0,0,.18-0.18,0.839,0.839,0,0,0-.58-0.54,3.119,3.119,0,0,0-1.3-.64c-0.16,0-.32.12-0.96,1.28l-2.02.32v-2.28a0.782,0.782,0,0,0,.64-0.54c0-.32-0.38-0.4-2.56-0.62,0.06,1.34.08,2.14,0.08,3.48v0.24l-0.98.16a7.827,7.827,0,0,1-1.46.06l0.3,0.7a6.863,6.863,0,0,1,1.4-.32Zm2.4-8.88c0,1.54-.02,2.02-0.02,2.3,0,1.46.98,1.88,4.46,1.88a20.463,20.463,0,0,0,4.92-.38c1.04-.24,1.48-0.58,1.48-1.12a0.68,0.68,0,0,0-.48-0.64,0.638,0.638,0,0,1-.44-0.8c0-.32,0-0.56.04-1.28a0.112,0.112,0,0,0-.22-0.02,4.5,4.5,0,0,1-.96,1.9c-0.46.5-1.42,0.72-4.46,0.72-2.24,0-2.44-.12-2.44-0.82v-1.92l10.44-.98a0.31,0.31,0,0,0,.32-0.2,1.06,1.06,0,0,0-.64-0.66,3.838,3.838,0,0,0-1.5-.88c-0.16-.02-0.32.1-1.3,1.56l-7.32.68v-2.42c0.48-.2.6-0.3,0.6-0.46,0-.34-0.16-0.38-2.54-0.7,0.06,1.48.06,2.82,0.06,3.76l-2,.18a16.432,16.432,0,0,1-2.02,0l0.3,0.78a12,12,0,0,1,1.78-.3Zm6.04,8.84v3.26c0,1.4.72,1.72,3.06,1.72a10.868,10.868,0,0,0,3.18-.3,0.967,0.967,0,0,0,.92-0.94,0.673,0.673,0,0,0-.46-0.68c-0.28-.1-0.34-0.18-0.34-0.32,0-.36-0.04-0.96.02-1.98,0-.12-0.2-0.14-0.24-0.02a4.66,4.66,0,0,1-1.1,2.26c-0.32.28-.74,0.36-1.96,0.36-1.06,0-1.24-.08-1.24-0.64v-3l5.8-.9a0.211,0.211,0,0,0,.18-0.18,0.839,0.839,0,0,0-.58-0.54,3.6,3.6,0,0,0-1.42-.7c-0.16,0-.32.12-1.08,1.38l-2.9.46v-2.24a0.782,0.782,0,0,0,.64-0.54c0-.32-0.38-0.4-2.56-0.62,0.06,1.34.08,2.14,0.08,3.48v0.22l-0.82.12a7.827,7.827,0,0,1-1.46.06l0.3,0.7a6.863,6.863,0,0,1,1.4-.32Z" transform="translate(-1300.5 -4815.31)"/>
</svg>
